/* XPM */
static char * icon_xpm[] = {
"32 32 133 2",
"  	c None",
". 	c #0C000C",
"+ 	c #160016",
"@ 	c #0A000A",
"# 	c #823D00",
"$ 	c #B06300",
"% 	c #100010",
"& 	c #AC6602",
"* 	c #EC9B00",
"= 	c #B06800",
"- 	c #140014",
"; 	c #B26A02",
"> 	c #F09F02",
", 	c #F29F00",
"' 	c #AE6702",
") 	c #120012",
"! 	c #E49100",
"~ 	c #905100",
"{ 	c #0E000E",
"] 	c #220022",
"^ 	c #C47800",
"/ 	c #F29A00",
"( 	c #C27B00",
"_ 	c #1E001E",
": 	c #7E3D04",
"< 	c #B26900",
"[ 	c #B66B00",
"} 	c #B66F00",
"| 	c #B86C00",
"1 	c #C47300",
"2 	c #E89A04",
"3 	c #F69600",
"4 	c #EE9200",
"5 	c #F49B00",
"6 	c #F69C00",
"7 	c #FC9A00",
"8 	c #F89800",
"9 	c #F89E00",
"0 	c #FA9F00",
"a 	c #FCA000",
"b 	c #FE9B00",
"c 	c #080008",
"d 	c #824000",
"e 	c #C27700",
"f 	c #E69200",
"g 	c #BF7603",
"h 	c #1C001C",
"i 	c #060006",
"j 	c #924F00",
"k 	c #BE6B00",
"l 	c #E89900",
"m 	c #EA9A00",
"n 	c #B86800",
"o 	c #B26500",
"p 	c #8D4301",
"q 	c #180018",
"r 	c #9E5900",
"s 	c #FAA500",
"t 	c #F4A100",
"u 	c #DC8D04",
"v 	c #9C5C00",
"w 	c #C87A00",
"x 	c #F6A200",
"y 	c #F8A504",
"z 	c #FAA604",
"A 	c #FCA600",
"B 	c #F5A905",
"C 	c #864200",
"D 	c #C07500",
"E 	c #FCA102",
"F 	c #F89E02",
"G 	c #F09800",
"H 	c #AF6803",
"I 	c #FAA002",
"J 	c #B66700",
"K 	c #BE7000",
"L 	c #EDA201",
"M 	c #FDA101",
"N 	c #FEA100",
"O 	c #F19901",
"P 	c #FEA202",
"Q 	c #F69D02",
"R 	c #DF8E01",
"S 	c #8E4A00",
"T 	c #1A001A",
"U 	c #F99F01",
"V 	c #995301",
"W 	c #984D04",
"X 	c #E69800",
"Y 	c #FEA700",
"Z 	c #B46600",
"` 	c #904B00",
" .	c #9C5D02",
"..	c #C87F00",
"+.	c #EE9700",
"@.	c #E49C00",
"#.	c #C27200",
"$.	c #B46A00",
"%.	c #F8A402",
"&.	c #C07A00",
"*.	c #E49202",
"=.	c #F79D01",
"-.	c #FDA203",
";.	c #FBA103",
">.	c #FAA004",
",.	c #8F4B01",
"'.	c #9C5800",
").	c #FBA603",
"!.	c #F49D04",
"~.	c #BC7300",
"{.	c #FAA502",
"].	c #F99F03",
"^.	c #F09300",
"/.	c #BE7400",
"(.	c #C67900",
"_.	c #EC9600",
":.	c #B26000",
"<.	c #924C00",
"[.	c #E88E00",
"}.	c #FA9900",
"|.	c #AE6200",
"1.	c #844100",
"2.	c #200020",
"3.	c #F9A503",
"4.	c #E09400",
"5.	c #F4A804",
"6.	c #F6A904",
"7.	c #F49500",
"8.	c #BD7003",
"9.	c #E29500",
"0.	c #F09E00",
"a.	c #DD8D01",
"b.	c #B56F01",
"                                                                ",
"                                    . + + .                     ",
"                                  @ # $ $ # .                   ",
"                                  % & * * = -                   ",
"                                  . ; > , ' )                   ",
"                                  @ ; > ! ~                     ",
"                        ) % { .   ] ^ / ( _                     ",
"                    . : < [ [ } | 1 2 3 | .                     ",
"                    - $ 4 5 5 5 5 6 7 8 [ @                     ",
"                    - = 4 / 5 9 0 a b 8 [ c                     ",
"                    . d & ; e f 5 0 a 9 g h @ @ i               ",
"                        { . h j k l 0 a m ( n o p q             ",
"                              i + r l s s 6 t , u v ]           ",
"                                  q w x s y z A B l k C         ",
"                                    D x s y z E E F G H         ",
"                                    w 9 z z z I I I 6 J {       ",
"                                  K L M N N N I I I 5 o {       ",
"                                = O M P N N N I I Q R S         ",
"                              T e U P P N a 9 6 , u V h         ",
"      ) % c                 ) W X I E Y a * ^ [ ' S T           ",
"    # o Z ` _ . . . . @ @ q  .! F E E E 0 .._ c @               ",
"    = +.5 @.#.| [ $.$.$.} e l %.E E E E 0 &.@                   ",
"    = +.9 0 9 6 Q Q Q 6 6 6 0 N N E E E 0 ..T                   ",
"    d ' ( *.=.z -.-.-.N N ;.;.;.b >.>.>.A X ,.c                 ",
"      . _ '.! 0 A N N N ).;.;.;.b !.Q Q F t o {                 ",
"          T ~.5 A N N {.{.;.;.].^.  /.(.f _.:.)                 ",
"            <.[.}.).).{.{.{.N 0 (.    h j |.1.{                 ",
"            2.D 3 3.).{.{.{.a 6 [       c ) .                   ",
"            c j 4., x 5.6.7 7 7.< @                             ",
"              h S < 8.9.0.7.7.a.~                               ",
"                i . _ ` < b.< S _                               ",
"                                                                "};
